<?xml version="1.0" standalone="no"?>
<!DOCTYPE svg PUBLIC "-//W3C//DTD SVG 20010904//EN"
 "http://www.w3.org/TR/2001/REC-SVG-20010904/DTD/svg10.dtd">
<svg version="1.0" xmlns="http://www.w3.org/2000/svg"
 width="280.000000pt" height="280.000000pt" viewBox="0 0 280.000000 280.000000"
 preserveAspectRatio="xMidYMid meet">
<metadata>
Created by potrace 1.14, written by Peter Selinger 2001-2017
</metadata>
<g transform="translate(0.000000,280.000000) scale(0.100000,-0.100000)"
fill="#000000" stroke="none">
<path d="M0 1400 l0 -1400 1400 0 1400 0 0 1400 0 1400 -1400 0 -1400 0 0
-1400z m1757 465 c55 -16 120 -71 150 -127 25 -47 25 -179 -1 -230 -42 -85
-137 -142 -254 -151 -41 -3 -55 -1 -59 10 -8 20 10 29 68 36 149 18 243 186
180 322 -36 77 -123 134 -206 136 -40 1 -45 3 -25 9 40 13 93 11 147 -5z m-68
-101 c2 -2 -6 -4 -19 -4 -37 0 -112 -31 -142 -58 -28 -25 -58 -98 -58 -138 0
-21 -17 -34 -44 -34 -22 0 1 118 32 167 19 30 77 65 121 73 33 6 100 2 110 -6z
m-243 -321 c12 -27 18 -64 18 -128 1 -81 -2 -95 -28 -142 -17 -31 -35 -51 -45
-51 -9 1 -27 -2 -41 -7 -24 -7 -24 -7 -9 11 9 11 28 49 43 86 22 56 26 82 26
167 0 56 4 101 9 101 5 0 17 -17 27 -37z m-252 1 c9 -3 16 -12 16 -20 0 -14
-11 -17 -84 -29 -105 -17 -186 -116 -186 -227 0 -130 98 -226 233 -229 l52 -2
-52 -10 c-70 -13 -132 -2 -186 34 -77 50 -117 126 -117 220 0 132 92 235 232
258 71 12 74 12 92 5z m187 -24 c5 0 9 -7 9 -16 0 -23 -44 -14 -48 10 -3 14 0
17 13 12 9 -3 21 -6 26 -6z m-76 -370 c0 -29 -117 -40 -170 -16 l-30 14 40 -5
c23 -2 57 2 80 11 48 18 80 17 80 -4z"/>
</g>
</svg>
