<?xml version="1.0" standalone="no"?>
<!DOCTYPE svg PUBLIC "-//W3C//DTD SVG 20010904//EN"
 "http://www.w3.org/TR/2001/REC-SVG-20010904/DTD/svg10.dtd">
<svg version="1.0" xmlns="http://www.w3.org/2000/svg"
 width="1024.000000pt" height="1024.000000pt" viewBox="0 0 1024.000000 1024.000000"
 preserveAspectRatio="xMidYMid meet">
<metadata>
Created by potrace 1.14, written by Peter Selinger 2001-2017
</metadata>
<g transform="translate(0.000000,1024.000000) scale(0.100000,-0.100000)"
fill="#000000" stroke="none">
<path d="M2175 8830 c-89 -8 -160 -25 -285 -69 -241 -83 -408 -189 -596 -376
-215 -214 -343 -451 -409 -760 -10 -44 -20 -83 -22 -88 -6 -10 -14 -219 -16
-404 -1 -103 -4 -150 -12 -145 -6 3 -6 0 1 -9 14 -17 15 -99 2 -116 -5 -7 -5
-13 0 -17 5 -3 9 -28 9 -56 0 -34 -3 -47 -11 -43 -6 4 -5 0 2 -9 13 -16 12
-44 -2 -67 -6 -9 -5 -12 1 -8 6 4 10 -15 9 -53 0 -33 -4 -60 -8 -60 -4 0 -8
-5 -8 -11 0 -5 4 -8 8 -5 10 6 9 -45 -2 -63 -5 -7 -5 -16 1 -20 10 -7 11 -41
1 -57 -4 -6 -4 -14 0 -18 11 -12 9 -116 -3 -116 -5 0 -3 -5 5 -10 13 -9 13
-10 0 -10 -9 0 -11 -3 -5 -8 13 -9 16 -62 4 -62 -5 0 -4 -11 1 -25 6 -15 6
-26 -1 -30 -5 -4 -6 -12 -2 -18 11 -18 11 -47 0 -47 -5 0 -3 -8 4 -17 12 -14
12 -16 0 -8 -11 6 -12 5 -5 -6 11 -18 12 -89 0 -89 -5 0 -2 -8 5 -17 12 -15
12 -16 -1 -8 -12 7 -13 6 -4 -6 13 -17 14 -49 2 -49 -5 0 -6 -5 -3 -11 10 -16
13 -119 3 -113 -4 3 -8 0 -8 -5 0 -6 4 -11 8 -11 9 0 7 -53 -2 -69 -4 -5 -2
-12 3 -15 11 -7 9 -25 -3 -45 -5 -8 -5 -12 0 -9 5 4 9 -18 9 -48 0 -30 -4 -54
-10 -54 -7 0 -7 -3 0 -8 6 -4 10 -72 10 -167 0 -95 -4 -163 -10 -167 -7 -5 -7
-10 0 -15 6 -5 10 -47 10 -95 0 -55 -4 -84 -10 -80 -6 4 -6 1 0 -9 12 -16 13
-39 2 -56 -5 -7 -4 -13 0 -13 12 0 10 -53 -2 -62 -7 -5 -7 -8 0 -8 12 0 13
-89 2 -107 -5 -7 -4 -13 1 -13 10 0 10 -106 -1 -116 -4 -4 -2 -14 5 -21 9 -11
9 -17 -3 -24 -8 -5 -9 -9 -4 -9 12 0 13 -40 1 -58 -4 -7 -4 -12 1 -12 12 0 11
-554 -2 -562 -6 -5 -6 -8 2 -8 14 0 13 -26 -1 -49 -6 -10 -5 -12 2 -7 15 9 12
-46 -3 -56 -7 -5 -7 -8 0 -8 12 0 13 -49 2 -67 -4 -6 -4 -14 1 -17 11 -7 9
-77 -2 -95 -6 -9 -5 -12 2 -7 14 8 12 -34 -2 -53 -8 -11 -8 -13 0 -8 7 4 12
-2 12 -18 0 -14 -5 -22 -10 -19 -6 4 -5 -3 1 -15 9 -16 9 -21 -1 -21 -8 0 -9
-3 -3 -8 13 -9 13 -62 1 -81 -6 -9 -5 -12 2 -7 7 4 10 -4 10 -24 -1 -16 -6
-30 -12 -30 -7 0 -7 -3 -1 -8 13 -9 14 -95 0 -104 -7 -5 -7 -8 1 -8 6 0 10
-24 10 -59 0 -40 -3 -58 -10 -53 -6 3 -5 -1 1 -9 10 -12 10 -18 1 -27 -7 -7
-8 -12 -2 -12 14 0 12 -83 -1 -92 -6 -5 -6 -8 2 -8 7 0 11 -19 11 -52 0 -80
10 -189 21 -225 5 -18 8 -33 5 -33 -3 0 0 -8 5 -17 5 -10 12 -34 15 -54 3 -20
11 -49 17 -65 16 -40 21 -55 23 -81 0 -12 6 -21 11 -20 6 1 9 -4 7 -12 -2 -7
5 -22 14 -32 9 -11 14 -19 10 -19 -3 0 5 -22 19 -50 14 -27 23 -50 20 -50 -3
0 3 -9 14 -21 11 -12 25 -35 32 -53 7 -17 23 -42 36 -55 12 -14 20 -28 18 -32
-3 -4 2 -10 11 -13 9 -4 14 -13 10 -22 -3 -8 -2 -12 4 -9 5 3 16 -2 24 -12 53
-63 75 -96 70 -104 -3 -5 2 -6 11 -3 11 5 18 0 22 -15 3 -11 10 -21 15 -21 6
0 7 -7 4 -16 -3 -8 -2 -12 4 -9 12 7 71 -45 64 -57 -3 -5 0 -7 8 -6 7 2 12 -3
10 -10 -1 -8 2 -11 9 -6 7 4 18 -1 25 -10 7 -10 15 -17 18 -17 19 2 26 0 26
-9 0 -6 10 -21 21 -33 12 -12 18 -15 14 -7 -5 10 -1 8 13 -4 12 -11 32 -24 45
-31 12 -6 21 -17 19 -24 -1 -7 2 -10 8 -6 10 6 109 -42 122 -60 4 -5 8 -6 8
-1 0 4 11 1 25 -8 13 -9 31 -16 40 -16 8 0 15 -5 15 -10 0 -6 3 -9 8 -8 14 4
141 -46 136 -54 -3 -4 1 -5 9 -2 8 3 18 0 22 -5 3 -6 11 -9 16 -6 5 4 15 3 21
-2 7 -4 22 -8 33 -9 11 0 31 -4 45 -8 14 -3 36 -8 50 -10 14 -3 25 -5 25 -6 0
-1 45 -4 153 -9 15 -1 21 -5 16 -13 -5 -7 -3 -8 7 -2 25 15 41 14 35 -4 -5
-15 -4 -15 8 1 16 20 30 23 23 3 -6 -15 17 -16 30 -1 4 4 2 5 -5 1 -6 -4 -12
-3 -12 1 0 5 49 9 109 9 65 0 107 -4 104 -10 -4 -5 -1 -6 8 0 8 5 40 10 72 10
50 2 57 -1 53 -15 -6 -14 -5 -14 6 0 8 9 28 16 48 16 20 0 40 -7 48 -16 10
-14 11 -14 7 -1 -5 13 6 16 65 17 62 0 70 -2 66 -16 -5 -14 -5 -14 6 -1 17 20
53 27 42 8 -6 -11 -5 -11 8 0 19 15 70 12 64 -4 -3 -8 3 -10 16 -6 13 3 16 7
8 12 -8 5 -8 9 3 13 7 3 20 1 27 -3 8 -5 27 -6 44 -3 23 5 28 3 24 -9 -4 -8 0
-15 7 -15 7 0 11 6 9 12 -5 12 5 15 51 15 46 0 56 -3 51 -15 -2 -6 2 -12 9
-12 7 0 11 5 9 11 -7 19 58 17 80 -2 20 -16 20 -16 6 2 -13 17 -13 19 0 14 8
-3 23 -1 33 4 13 7 17 5 17 -9 0 -11 3 -14 8 -7 4 6 24 11 45 11 31 0 37 -3
32 -16 -4 -11 1 -9 17 6 15 15 28 19 37 14 8 -5 27 -7 44 -4 25 4 29 2 23 -14
-6 -17 -5 -17 8 1 15 18 53 16 42 -3 -3 -5 2 -15 11 -22 15 -12 16 -12 8 1
-19 31 -13 36 46 37 38 0 56 -3 52 -10 -4 -6 -1 -7 8 -1 20 13 160 14 152 1
-4 -6 -1 -7 8 -1 22 14 132 15 141 1 6 -9 8 -9 8 1 0 6 7 12 16 12 8 0 12 -4
9 -10 -3 -6 1 -7 9 -4 9 3 16 10 16 14 0 4 16 4 36 0 20 -5 43 -6 50 -3 8 3
14 -1 14 -8 0 -11 3 -11 10 1 9 13 11 13 20 0 5 -8 10 -10 10 -4 0 14 112 14
122 -1 5 -7 8 -6 8 1 0 7 25 11 66 12 36 0 68 3 72 6 3 3 11 1 17 -4 8 -7 21
-7 38 -1 21 8 28 7 36 -7 6 -10 11 -12 11 -4 0 6 7 12 16 12 9 0 12 -5 8 -12
-4 -7 -3 -8 5 -4 6 4 22 9 36 12 19 3 23 1 20 -16 -2 -11 0 -22 4 -25 5 -2 8
5 7 18 -1 18 5 22 27 23 22 1 27 -3 22 -15 -4 -14 -4 -14 7 -1 15 18 102 25
92 8 -5 -7 -2 -8 7 -2 12 8 109 11 419 13 198 1 316 -4 322 -13 5 -7 8 -7 8
-1 0 15 43 16 52 2 6 -9 8 -9 8 0 0 10 29 12 115 11 63 -1 115 -6 115 -11 0
-4 -4 -6 -9 -2 -6 3 -15 -5 -21 -17 -11 -22 -10 -22 4 -4 9 11 16 16 16 10 0
-5 8 0 16 11 10 12 18 15 21 9 2 -6 11 -20 19 -30 14 -18 15 -18 5 3 -15 29
-14 30 12 28 12 -1 35 2 50 6 23 7 28 5 23 -6 -3 -9 4 -19 17 -25 21 -11 21
-11 3 4 -11 9 -18 17 -15 17 2 1 67 3 144 4 93 2 145 -1 154 -9 10 -7 13 -8 8
0 -4 8 12 11 53 12 40 1 60 -3 60 -11 0 -7 4 -6 10 3 8 12 11 13 19 1 6 -9 11
-10 15 -2 4 6 15 11 24 11 15 0 15 -2 2 -10 -9 -6 -10 -10 -3 -10 6 0 15 5 18
10 10 16 62 12 69 -6 3 -8 10 -13 15 -10 5 4 12 1 14 -4 3 -6 4 -5 2 2 -1 7
-8 12 -14 10 -6 -1 -11 2 -11 7 0 4 18 8 40 8 22 0 40 -4 40 -9 0 -5 -4 -7 -9
-3 -11 6 -33 -29 -38 -59 -4 -22 7 -16 11 6 6 28 18 48 27 42 5 -3 12 1 15 9
4 11 26 14 90 14 72 -1 84 -3 79 -16 -5 -15 -4 -15 7 0 8 9 29 15 51 16 31 0
37 -3 32 -15 -5 -12 -1 -12 15 3 11 10 20 15 20 11 0 -4 8 -3 18 3 13 7 23 4
42 -12 19 -17 21 -18 10 -3 -13 17 -13 19 0 14 8 -3 23 -1 33 4 11 6 17 5 17
-2 0 -6 5 -8 11 -4 6 3 15 0 20 -7 5 -8 9 -9 9 -4 0 6 14 12 31 13 22 2 28 -1
23 -10 -6 -9 -3 -9 9 1 10 8 27 11 43 7 16 -4 23 -3 19 3 -3 6 0 9 7 6 24 -9
89 -12 94 -4 3 5 15 4 28 -1 13 -5 27 -6 32 -2 4 4 4 -2 0 -12 -6 -17 -5 -17
10 -5 22 18 445 23 456 5 6 -8 8 -8 8 1 0 7 22 11 64 11 35 0 69 3 75 6 6 4
11 3 11 -3 0 -5 8 -8 18 -6 9 1 23 -3 31 -9 12 -9 13 -8 6 3 -6 11 -4 13 8 8
10 -3 17 -3 17 2 0 5 28 9 63 9 34 0 74 2 90 5 15 3 27 2 27 -3 0 -13 29 -20
36 -8 4 6 3 8 -4 4 -6 -3 -13 -2 -16 3 -7 10 9 17 57 25 17 3 27 0 27 -7 0 -8
3 -7 9 2 5 8 14 10 21 6 9 -5 11 -4 6 3 -4 7 -2 13 3 13 21 3 44 11 111 41 25
11 55 21 67 22 13 0 23 4 23 7 0 3 17 13 37 23 26 12 34 14 27 4 -5 -8 -2 -7
6 2 23 23 57 40 72 36 7 -1 10 -1 5 1 -11 7 2 23 19 23 9 0 22 7 30 15 18 18
38 20 28 3 -5 -7 -3 -8 5 -4 7 5 10 10 7 13 -7 7 4 17 89 82 39 30 80 65 92
78 12 13 29 23 38 23 10 0 13 5 9 12 -5 7 -2 9 9 5 11 -4 14 -2 10 9 -3 9 1
14 13 14 9 0 15 3 11 6 -3 4 9 23 28 43 19 20 35 40 35 44 0 4 9 17 20 29 11
12 32 40 47 62 16 23 31 43 36 44 4 2 7 10 7 18 0 8 3 14 8 14 4 0 12 8 17 19
6 10 21 38 35 62 13 24 24 46 25 49 0 3 10 25 21 50 25 53 49 112 49 122 0 3
3 10 7 14 5 4 8 14 8 23 0 9 7 29 15 44 8 15 9 25 4 21 -6 -3 -4 7 4 22 8 16
18 52 22 79 4 28 9 54 12 59 3 4 7 27 9 50 2 22 3 1087 4 2366 0 2489 0 2460
-49 2632 -80 278 -219 525 -388 690 -186 182 -319 272 -518 348 -33 12 -69 26
-80 31 -35 14 -158 48 -220 60 -45 9 -809 12 -3140 14 -1694 1 -3116 -1 -3160
-5z m6236 -728 c60 -29 126 -95 153 -152 20 -43 21 -62 24 -427 l3 -383 -3285
0 -3286 0 0 370 c0 341 2 374 19 420 37 97 106 158 210 186 36 10 696 12 3081
11 l3035 -2 46 -23z m167 -1521 c10 -6 12 -230 8 -1192 -2 -651 -5 -1204 -5
-1228 l-1 -43 -672 3 -673 3 -43 -23 c-54 -28 -112 -90 -134 -144 -15 -38 -17
-111 -17 -794 l-1 -753 -707 -2 c-1548 -4 -4059 4 -4094 13 -19 5 -60 26 -90
47 -43 30 -61 52 -89 106 l-35 69 -3 1973 -2 1974 3272 0 c1800 0 3279 -4
3286 -9z"/>
<path d="M5377 7798 c-13 -8 -18 -340 -5 -361 5 -8 77 -11 254 -9 136 1 250 4
253 6 9 6 7 353 -2 362 -10 10 -484 12 -500 2z"/>
<path d="M6161 7788 c-7 -21 -6 -346 2 -354 3 -3 117 -6 253 -6 214 0 248 2
256 16 5 9 8 51 8 93 -1 43 -1 87 -1 98 0 11 1 49 2 84 0 35 -4 68 -11 75 -8
8 -86 11 -257 11 -222 0 -246 -1 -252 -17z"/>
<path d="M6969 7794 c-14 -17 -8 -342 7 -355 14 -12 474 -13 486 -1 9 9 13
350 3 360 -12 12 -486 8 -496 -4z"/>
<path d="M7749 7798 c-11 -11 -14 -47 -13 -166 2 -158 12 -210 42 -211 104 -4
496 0 501 4 12 12 5 355 -8 368 -8 8 -87 13 -260 15 -204 3 -250 2 -262 -10z"/>
<path d="M2579 5866 c-70 -22 -131 -76 -167 -146 -27 -54 -23 -182 7 -239 27
-51 70 -94 126 -124 l40 -22 2610 0 2610 0 47 28 c61 37 111 93 133 150 21 57
17 155 -9 209 -27 56 -94 116 -154 138 -52 20 -83 20 -2630 19 -1906 -1 -2586
-4 -2613 -13z"/>
<path d="M2584 4756 c-111 -35 -183 -121 -192 -231 -9 -115 45 -212 146 -262
l57 -28 2560 -3 c1851 -2 2579 1 2627 9 59 9 75 17 117 55 96 86 128 208 80
309 -26 55 -104 129 -155 147 -57 19 -5178 23 -5240 4z"/>
<path d="M2590 3657 c-19 -7 -59 -28 -88 -47 -74 -49 -107 -117 -107 -220 0
-96 15 -133 82 -197 43 -41 65 -54 106 -63 38 -8 597 -10 2012 -8 l1960 3 45
21 c204 95 205 396 2 496 l-47 23 -1965 2 c-1487 1 -1974 -1 -2000 -10z"/>
<path d="M766 5438 c3 -5 10 -6 15 -3 13 9 11 12 -6 12 -8 0 -12 -4 -9 -9z"/>
<path d="M799 4993 c-13 -16 -12 -17 4 -4 9 7 17 15 17 17 0 8 -8 3 -21 -13z"/>
<path d="M776 3367 c3 -10 9 -15 12 -12 3 3 0 11 -7 18 -10 9 -11 8 -5 -6z"/>
<path d="M873 2235 c0 -8 4 -12 9 -9 5 3 6 10 3 15 -9 13 -12 11 -12 -6z"/>
<path d="M9225 1720 c-3 -6 1 -7 9 -4 18 7 21 14 7 14 -6 0 -13 -4 -16 -10z"/>
<path d="M1346 1678 c3 -5 10 -6 15 -3 13 9 11 12 -6 12 -8 0 -12 -4 -9 -9z"/>
<path d="M1535 1591 c-3 -5 -2 -12 3 -15 5 -3 9 1 9 9 0 17 -3 19 -12 6z"/>
<path d="M1616 1542 c-3 -5 1 -9 9 -9 8 0 12 4 9 9 -3 4 -7 8 -9 8 -2 0 -6 -4
-9 -8z"/>
<path d="M1655 1500 c3 -5 8 -10 11 -10 2 0 4 5 4 10 0 6 -5 10 -11 10 -5 0
-7 -4 -4 -10z"/>
<path d="M8955 1499 c-3 -4 2 -6 10 -5 21 3 28 13 10 13 -9 0 -18 -4 -20 -8z"/>
<path d="M1695 1480 c3 -5 8 -10 11 -10 2 0 4 5 4 10 0 6 -5 10 -11 10 -5 0
-7 -4 -4 -10z"/>
<path d="M8915 1451 c-3 -5 -2 -12 3 -15 5 -3 9 1 9 9 0 17 -3 19 -12 6z"/>
<path d="M1584 1442 c4 -3 14 -7 22 -8 9 -1 13 0 10 4 -4 3 -14 7 -22 8 -9 1
-13 0 -10 -4z"/>
<path d="M1755 1430 c-4 -6 -11 -7 -17 -4 -7 4 -8 2 -4 -5 6 -9 11 -9 22 0 14
11 18 19 10 19 -3 0 -8 -5 -11 -10z"/>
<path d="M1665 1400 c-3 -6 1 -7 9 -4 18 7 21 14 7 14 -6 0 -13 -4 -16 -10z"/>
<path d="M8705 1399 c-3 -4 2 -6 10 -5 21 3 28 13 10 13 -9 0 -18 -4 -20 -8z"/>
<path d="M1899 1368 c-5 -18 -6 -38 -1 -34 7 8 12 36 6 36 -2 0 -4 -1 -5 -2z"/>
<path d="M8309 1343 c-13 -16 -12 -17 3 -5 9 8 23 10 29 6 8 -4 9 -3 5 4 -10
17 -21 15 -37 -5z"/>
<path d="M1795 1341 c-3 -5 -2 -12 3 -15 5 -3 9 1 9 9 0 17 -3 19 -12 6z"/>
<path d="M2227 1339 c7 -7 15 -10 18 -7 3 3 -2 9 -12 12 -14 6 -15 5 -6 -5z"/>
<path d="M2642 1338 c-15 -15 -15 -28 0 -28 6 0 8 3 5 7 -4 3 -2 12 4 20 14
16 7 17 -9 1z"/>
<path d="M2793 1330 c-1 -11 2 -20 5 -20 4 0 8 9 9 20 1 11 -2 20 -5 20 -4 0
-8 -9 -9 -20z"/>
<path d="M2908 1332 c5 -9 8 -28 5 -41 -2 -14 -1 -22 3 -18 13 13 11 66 -3 71
-10 4 -11 1 -5 -12z"/>
<path d="M3396 1342 c-2 -4 0 -14 6 -22 8 -12 9 -12 5 2 -3 9 -1 19 6 22 9 3
9 5 0 5 -6 1 -14 -3 -17 -7z"/>
<path d="M3476 1341 c-3 -4 3 -16 13 -25 14 -13 18 -14 18 -2 0 8 -5 14 -11
13 -6 -1 -10 4 -8 11 2 14 -4 16 -12 3z"/>
<path d="M3539 1348 c-7 -23 -3 -45 8 -41 9 4 10 9 3 18 -5 6 -7 15 -3 18 3 4
3 7 0 7 -4 0 -7 -1 -8 -2z"/>
<path d="M3893 1334 c-3 -8 -1 -20 5 -26 8 -8 9 -4 5 12 -5 17 -3 21 7 15 9
-5 11 -4 6 3 -10 16 -15 15 -23 -4z"/>
<path d="M3979 1348 c-6 -22 -5 -39 3 -45 6 -3 8 -1 4 5 -3 5 0 13 6 15 10 4
10 6 0 6 -7 1 -10 6 -7 11 3 6 4 10 1 10 -3 0 -6 -1 -7 -2z"/>
<path d="M4053 1334 c-3 -8 -2 -19 3 -24 5 -5 9 1 9 16 0 28 -3 30 -12 8z"/>
<path d="M4135 1341 c-9 -15 15 -25 28 -12 9 9 7 10 -7 5 -13 -5 -17 -4 -12 4
4 7 5 12 2 12 -3 0 -7 -4 -11 -9z"/>
<path d="M4273 1338 c2 -7 1 -20 -4 -28 -5 -11 -2 -16 11 -16 12 0 16 4 11 11
-5 5 -7 18 -6 28 2 9 -1 17 -7 17 -5 0 -8 -6 -5 -12z"/>
<path d="M4435 1340 c-3 -5 -1 -10 4 -10 6 0 11 5 11 10 0 6 -2 10 -4 10 -3 0
-8 -4 -11 -10z"/>
<path d="M4550 1341 c0 -17 21 -24 33 -12 9 9 7 10 -7 5 -13 -5 -17 -4 -12 4
4 7 2 12 -3 12 -6 0 -11 -4 -11 -9z"/>
<path d="M4933 1334 c-3 -8 -2 -19 3 -24 5 -5 9 1 9 16 0 28 -3 30 -12 8z"/>
<path d="M5015 1339 c-4 -6 -5 -12 -2 -15 2 -3 7 2 10 11 7 17 1 20 -8 4z"/>
<path d="M5073 1343 c4 -3 1 -13 -6 -22 -11 -14 -10 -14 6 -2 20 15 22 31 5
31 -6 0 -8 -3 -5 -7z"/>
<path d="M5134 1338 c-4 -7 -4 -10 1 -6 4 4 14 0 22 -10 13 -15 13 -15 3 6
-12 25 -16 27 -26 10z"/>
<path d="M5175 1341 c-3 -5 0 -13 6 -17 7 -4 9 -3 5 4 -3 6 2 13 11 15 16 4
16 5 1 6 -9 0 -19 -3 -23 -8z"/>
<path d="M5270 1340 c0 -5 5 -10 10 -10 6 0 10 5 10 10 0 6 -4 10 -10 10 -5 0
-10 -4 -10 -10z"/>
<path d="M5337 1339 c7 -7 15 -10 18 -7 3 3 -2 9 -12 12 -14 6 -15 5 -6 -5z"/>
<path d="M5376 1342 c-2 -4 0 -14 6 -22 8 -12 9 -12 4 3 -4 12 0 17 13 17 14
0 18 -6 15 -22 -4 -21 -4 -21 5 -3 4 11 7 23 4 28 -6 9 -41 9 -47 -1z"/>
<path d="M5450 1340 c-9 -6 -10 -10 -3 -10 6 0 15 5 18 10 8 12 4 12 -15 0z"/>
<path d="M5550 1340 c0 -6 7 -10 15 -10 8 0 15 2 15 4 0 2 -7 6 -15 10 -8 3
-15 1 -15 -4z"/>
<path d="M5715 1340 c-3 -5 -1 -10 4 -10 6 0 11 5 11 10 0 6 -2 10 -4 10 -3 0
-8 -4 -11 -10z"/>
<path d="M5776 1342 c-2 -4 -1 -14 3 -21 6 -9 11 -10 15 -2 4 6 2 11 -4 11 -6
0 -8 5 -5 10 3 6 4 10 1 10 -3 0 -7 -4 -10 -8z"/>
<path d="M5880 1341 c15 -4 20 -10 13 -14 -6 -4 -19 -4 -30 -1 -17 5 -17 5 0
-6 14 -9 22 -9 32 0 19 16 10 30 -18 29 -20 -1 -20 -2 3 -8z"/>
<path d="M5930 1340 c-9 -6 -10 -10 -3 -10 6 0 15 5 18 10 8 12 4 12 -15 0z"/>
<path d="M6135 1340 c-3 -6 1 -7 9 -4 18 7 21 14 7 14 -6 0 -13 -4 -16 -10z"/>
<path d="M6220 1330 c6 -11 13 -20 16 -20 2 0 0 9 -6 20 -6 11 -13 20 -16 20
-2 0 0 -9 6 -20z"/>
<path d="M6290 1345 c0 -1 15 -12 33 -25 17 -12 26 -17 20 -9 -7 7 -13 17 -13
22 0 4 6 5 13 1 6 -4 9 -3 4 1 -5 6 -57 15 -57 10z"/>
<path d="M6360 1346 c0 -2 7 -7 16 -10 8 -3 12 -2 9 4 -6 10 -25 14 -25 6z"/>
<path d="M6416 1342 c-2 -4 0 -14 6 -22 8 -12 9 -12 4 3 -4 12 0 17 14 17 14
0 18 -5 14 -17 -5 -15 -4 -15 4 -3 13 18 6 30 -18 30 -10 0 -21 -4 -24 -8z"/>
<path d="M6550 1340 c0 -5 5 -10 10 -10 6 0 10 5 10 10 0 6 -4 10 -10 10 -5 0
-10 -4 -10 -10z"/>
<path d="M6968 1343 c-10 -2 -18 -9 -18 -14 0 -6 8 -5 20 1 11 6 20 13 20 15
0 3 -1 4 -2 4 -2 -1 -11 -3 -20 -6z"/>
<path d="M7495 1341 c6 -10 2 -12 -16 -6 -13 4 -22 6 -19 4 3 -2 14 -12 26
-22 20 -16 21 -16 19 3 -1 11 -5 23 -10 27 -4 5 -5 2 0 -6z"/>
<path d="M7954 1334 c4 -9 1 -24 -6 -33 -11 -14 -11 -14 4 -3 17 14 21 52 5
52 -5 0 -6 -7 -3 -16z"/>
<path d="M8110 1340 c0 -5 5 -10 10 -10 6 0 10 5 10 10 0 6 -4 10 -10 10 -5 0
-10 -4 -10 -10z"/>
<path d="M8384 1342 c4 -3 14 -7 22 -8 9 -1 13 0 10 4 -4 3 -14 7 -22 8 -9 1
-13 0 -10 -4z"/>
<path d="M8640 1340 c-12 -7 -10 -9 7 -7 12 0 19 5 17 9 -6 10 -6 10 -24 -2z"/>
<path d="M8715 1340 c-3 -5 -1 -10 4 -10 6 0 11 5 11 10 0 6 -2 10 -4 10 -3 0
-8 -4 -11 -10z"/>
<path d="M2035 1329 c-4 -6 -5 -12 -2 -15 2 -3 7 2 10 11 7 17 1 20 -8 4z"/>
<path d="M2535 1331 c-3 -6 -14 -8 -25 -6 -11 2 -22 1 -24 -3 -3 -4 10 -8 28
-8 20 0 33 5 33 13 0 15 -4 16 -12 4z"/>
<path d="M2573 1327 c0 -8 6 -14 14 -14 9 0 10 4 2 14 -6 7 -12 13 -14 13 -1
0 -2 -6 -2 -13z"/>
<path d="M2714 1332 c4 -7 2 -21 -5 -30 -12 -15 -11 -15 6 0 16 15 17 20 6 30
-11 11 -13 10 -7 0z"/>
<path d="M3053 1325 c0 -8 3 -13 5 -10 3 3 12 -1 21 -7 10 -8 9 -4 -3 10 -23
26 -23 26 -23 7z"/>
<path d="M3294 1319 c0 -14 3 -16 16 -6 8 6 16 12 18 13 1 1 -5 4 -15 6 -13 4
-19 0 -19 -13z"/>
<path d="M3630 1325 c0 -8 2 -15 4 -15 2 0 6 7 10 15 3 8 1 15 -4 15 -6 0 -10
-7 -10 -15z"/>
<path d="M4397 1329 c7 -7 15 -10 18 -7 3 3 -2 9 -12 12 -14 6 -15 5 -6 -5z"/>
<path d="M4530 1326 c0 -8 4 -17 9 -20 5 -4 7 3 4 14 -6 23 -13 26 -13 6z"/>
<path d="M5526 1323 c-6 -14 -5 -15 5 -6 7 7 10 15 7 18 -3 3 -9 -2 -12 -12z"/>
<path d="M5593 1327 c0 -8 6 -14 13 -14 7 0 10 6 7 14 -3 7 -8 13 -12 13 -4 0
-8 -6 -8 -13z"/>
<path d="M5635 1330 c3 -5 8 -10 11 -10 2 0 4 5 4 10 0 6 -5 10 -11 10 -5 0
-7 -4 -4 -10z"/>
<path d="M6114 1319 c2 -13 -2 -31 -8 -39 -9 -13 -9 -13 6 -2 9 7 15 22 13 34
-6 30 -16 37 -11 7z"/>
<path d="M6875 1330 c-4 -6 -10 -8 -15 -5 -5 3 -11 2 -14 -3 -2 -4 8 -8 23 -7
19 0 27 4 24 12 -6 16 -10 16 -18 3z"/>
<path d="M7054 1329 c1 -7 12 -13 24 -14 11 -1 19 2 16 7 -4 5 -12 7 -19 4 -8
-3 -16 -1 -19 5 -2 5 -3 4 -2 -2z"/>
<path d="M7153 1325 c0 -8 4 -15 9 -15 4 0 8 7 8 15 0 8 -4 15 -8 15 -5 0 -9
-7 -9 -15z"/>
<path d="M7260 1330 c0 -5 -6 -7 -14 -4 -8 3 -16 1 -20 -4 -3 -5 5 -8 16 -7
19 1 41 25 24 25 -3 0 -6 -4 -6 -10z"/>
<path d="M7317 1330 c7 -8 20 -15 29 -16 9 -1 13 1 9 4 -4 4 -10 7 -13 7 -4 0
-14 4 -22 9 -12 7 -13 6 -3 -4z"/>
<path d="M7534 1329 c1 -7 12 -13 24 -14 11 -1 19 2 16 7 -4 5 -12 7 -19 4 -8
-3 -16 -1 -19 5 -2 5 -3 4 -2 -2z"/>
<path d="M7630 1325 c0 -8 2 -15 4 -15 2 0 6 7 10 15 3 8 1 15 -4 15 -6 0 -10
-7 -10 -15z"/>
<path d="M7697 1321 c-4 -17 -3 -21 5 -13 5 5 8 16 6 23 -3 8 -7 3 -11 -10z"/>
<path d="M7810 1326 c0 -8 4 -17 9 -20 5 -4 7 3 4 14 -6 23 -13 26 -13 6z"/>
<path d="M7857 1321 c-4 -17 -3 -21 5 -13 5 5 8 16 6 23 -3 8 -7 3 -11 -10z"/>
<path d="M8166 1325 c-18 -14 -18 -14 1 -12 11 0 20 7 20 14 0 7 -1 13 -1 13
-1 0 -9 -7 -20 -15z"/>
<path d="M8210 1337 c0 -2 6 -10 14 -16 11 -9 16 -9 22 1 4 7 4 10 -1 6 -4 -4
-14 -3 -22 3 -7 6 -13 9 -13 6z"/>
<path d="M8450 1336 c0 -2 8 -10 18 -17 15 -13 16 -12 3 4 -13 16 -21 21 -21
13z"/>
<path d="M2173 1311 c0 -11 5 -18 9 -15 4 3 5 11 1 19 -7 21 -12 19 -10 -4z"/>
<path d="M2306 1318 c3 -5 10 -6 15 -3 13 9 11 12 -6 12 -8 0 -12 -4 -9 -9z"/>
<path d="M2951 1307 c-13 -21 -12 -21 5 -5 10 10 16 20 13 22 -3 3 -11 -5 -18
-17z"/>
<path d="M3120 1326 c0 -2 8 -10 18 -17 15 -13 16 -12 3 4 -13 16 -21 21 -21
13z"/>
<path d="M3191 1307 c-13 -21 -12 -21 5 -5 10 10 16 20 13 22 -3 3 -11 -5 -18
-17z"/>
<path d="M3726 1321 c-3 -5 1 -11 9 -14 9 -4 12 -1 8 9 -6 16 -10 17 -17 5z"/>
<path d="M4176 1313 c-6 -14 -5 -15 5 -6 7 7 10 15 7 18 -3 3 -9 -2 -12 -12z"/>
<path d="M4339 1313 c-13 -17 -13 -17 6 -3 11 8 22 16 24 17 2 2 0 3 -6 3 -6
0 -17 -8 -24 -17z"/>
<path d="M4495 1320 c-3 -5 -1 -10 4 -10 6 0 11 5 11 10 0 6 -2 10 -4 10 -3 0
-8 -4 -11 -10z"/>
<path d="M4640 1320 c-9 -6 -10 -10 -3 -10 6 0 15 5 18 10 8 12 4 12 -15 0z"/>
<path d="M4704 1310 c0 -13 4 -16 10 -10 7 7 7 13 0 20 -6 6 -10 3 -10 -10z"/>
<path d="M4736 1313 c-6 -14 -5 -15 5 -6 7 7 10 15 7 18 -3 3 -9 -2 -12 -12z"/>
<path d="M5101 1326 c2 -2 15 -9 29 -15 24 -11 24 -11 6 3 -16 13 -49 24 -35
12z"/>
<path d="M5230 1322 c0 -5 7 -9 15 -9 8 0 15 4 15 9 0 4 -7 8 -15 8 -8 0 -15
-4 -15 -8z"/>
<path d="M5310 1320 c-13 -8 -12 -10 3 -10 9 0 17 5 17 10 0 12 -1 12 -20 0z"/>
<path d="M5470 1319 c0 -3 9 -9 19 -12 13 -3 18 0 15 7 -5 13 -34 18 -34 5z"/>
<path d="M5750 1321 c0 -6 4 -13 10 -16 6 -3 7 1 4 9 -7 18 -14 21 -14 7z"/>
<path d="M5810 1318 c0 -6 3 -8 7 -5 3 4 16 -1 27 -10 21 -18 21 -18 2 5 -21
24 -36 29 -36 10z"/>
<path d="M5951 1327 c2 -1 12 -9 22 -16 15 -12 17 -12 11 3 -3 9 -13 16 -22
16 -8 0 -13 -1 -11 -3z"/>
<path d="M6050 1320 c0 -5 5 -10 10 -10 6 0 10 5 10 10 0 6 -4 10 -10 10 -5 0
-10 -4 -10 -10z"/>
<path d="M6263 1314 c-17 -14 -17 -15 2 -6 11 5 26 7 33 5 17 -6 15 4 -2 10
-8 3 -22 -1 -33 -9z"/>
<path d="M6511 1327 c2 -1 12 -9 22 -16 15 -12 17 -12 11 3 -3 9 -13 16 -22
16 -8 0 -13 -1 -11 -3z"/>
<path d="M6610 1318 c0 -6 3 -8 7 -5 3 4 16 -1 27 -10 21 -18 21 -18 2 5 -21
24 -36 29 -36 10z"/>
<path d="M6664 1318 c9 -5 23 -5 32 0 12 6 7 9 -16 9 -23 0 -28 -3 -16 -9z"/>
<path d="M6711 1307 c-13 -21 -12 -21 5 -5 10 10 16 20 13 22 -3 3 -11 -5 -18
-17z"/>
<path d="M6990 1323 c0 -6 8 -17 18 -24 16 -13 16 -13 2 6 -8 11 -16 22 -17
24 -2 2 -3 0 -3 -6z"/>
<path d="M7033 1312 c2 -12 9 -28 17 -35 10 -10 11 -9 4 3 -5 8 -9 21 -10 28
-2 8 -5 17 -8 20 -4 3 -5 -4 -3 -16z"/>
<path d="M8037 1312 c-15 -16 -15 -19 -2 -19 8 0 13 3 10 5 -3 3 0 11 6 19 17
20 5 16 -14 -5z"/>
<path d="M1995 1309 c-4 -6 -5 -12 -2 -15 2 -3 7 2 10 11 7 17 1 20 -8 4z"/>
<path d="M2829 1303 c-13 -16 -12 -17 4 -4 16 13 21 21 13 21 -2 0 -10 -8 -17
-17z"/>
<path d="M3429 1303 c-13 -16 -12 -17 4 -4 16 13 21 21 13 21 -2 0 -10 -8 -17
-17z"/>
<path d="M4111 1307 c-8 -10 -7 -14 2 -14 8 0 14 6 14 14 0 7 -1 13 -2 13 -2
0 -8 -6 -14 -13z"/>
<path d="M4433 1307 c0 -8 6 -14 14 -14 9 0 10 4 2 14 -6 7 -12 13 -14 13 -1
0 -2 -6 -2 -13z"/>
<path d="M4593 1307 c0 -8 6 -14 14 -14 9 0 10 4 2 14 -6 7 -12 13 -14 13 -1
0 -2 -6 -2 -13z"/>
<path d="M4670 1305 c-11 -13 -10 -14 4 -9 9 3 16 10 16 15 0 13 -6 11 -20 -6z"/>
<path d="M5656 1311 c-4 -5 3 -7 14 -4 23 6 26 13 6 13 -8 0 -17 -4 -20 -9z"/>
<path d="M6390 1316 c0 -2 8 -10 18 -17 15 -13 16 -12 3 4 -13 16 -21 21 -21
13z"/>
<path d="M7110 1316 c0 -2 8 -10 18 -17 15 -13 16 -12 3 4 -13 16 -21 21 -21
13z"/>
<path d="M7189 1303 c-13 -16 -12 -17 4 -4 16 13 21 21 13 21 -2 0 -10 -8 -17
-17z"/>
<path d="M7590 1316 c0 -2 8 -10 18 -17 15 -13 16 -12 3 4 -13 16 -21 21 -21
13z"/>
<path d="M2360 1300 c-9 -6 -10 -10 -3 -10 6 0 15 5 18 10 8 12 4 12 -15 0z"/>
<path d="M3100 1306 c0 -2 8 -10 18 -17 15 -13 16 -12 3 4 -13 16 -21 21 -21
13z"/>
<path d="M3320 1295 c-7 -9 -11 -17 -9 -20 3 -2 10 5 17 15 14 24 10 26 -8 5z"/>
<path d="M3561 1296 c-9 -11 -9 -16 1 -22 7 -4 10 -4 6 1 -4 4 -3 14 3 22 6 7
9 13 6 13 -2 0 -10 -6 -16 -14z"/>
<path d="M3700 1306 c0 -2 8 -10 18 -17 15 -13 16 -12 3 4 -13 16 -21 21 -21
13z"/>
<path d="M5197 1297 c4 -7 -1 -8 -12 -3 -15 5 -16 4 -5 -9 7 -8 17 -15 23 -15
6 0 7 3 4 7 -4 3 -2 11 3 18 7 8 5 12 -5 12 -8 0 -11 -5 -8 -10z"/>
<path d="M5558 1291 c5 -14 4 -14 -14 -1 -18 14 -18 14 -3 -5 9 -11 15 -28 14
-38 -2 -9 0 -15 5 -12 5 3 7 13 5 23 -1 9 1 24 6 33 5 10 4 16 -6 16 -8 0 -11
-7 -7 -16z"/>
<path d="M5716 1302 c-6 -10 5 -26 20 -29 6 -1 11 4 11 12 0 7 -7 11 -15 7
-10 -3 -13 -1 -8 6 4 7 5 12 2 12 -3 0 -7 -4 -10 -8z"/>
<path d="M5951 1293 c7 -12 15 -20 18 -17 3 2 -3 12 -13 22 -17 16 -18 16 -5
-5z"/>
<path d="M6508 1298 c8 -9 11 -22 8 -27 -4 -5 -3 -12 2 -15 16 -10 10 33 -6
46 -15 12 -16 11 -4 -4z"/>
<path d="M7460 1306 c0 -2 8 -10 18 -17 15 -13 16 -12 3 4 -13 16 -21 21 -21
13z"/>
<path d="M2735 1291 c-3 -5 -2 -12 3 -15 5 -3 9 1 9 9 0 17 -3 19 -12 6z"/>
<path d="M2849 1283 c-13 -16 -12 -17 4 -4 9 7 17 15 17 17 0 8 -8 3 -21 -13z"/>
<path d="M3375 1289 c-4 -6 -5 -12 -2 -15 2 -3 7 2 10 11 7 17 1 20 -8 4z"/>
<path d="M3473 1285 c0 -8 4 -12 9 -9 5 3 6 10 3 15 -9 13 -12 11 -12 -6z"/>
<path d="M3653 1285 c0 -8 4 -12 9 -9 5 3 6 10 3 15 -9 13 -12 11 -12 -6z"/>
<path d="M4795 1289 c-4 -6 -5 -12 -2 -15 2 -3 7 2 10 11 7 17 1 20 -8 4z"/>
<path d="M5813 1285 c0 -8 4 -12 9 -9 5 3 6 10 3 15 -9 13 -12 11 -12 -6z"/>
<path d="M6976 1287 c3 -10 9 -15 12 -12 3 3 0 11 -7 18 -10 9 -11 8 -5 -6z"/>
<path d="M7096 1287 c3 -10 9 -15 12 -12 3 3 0 11 -7 18 -10 9 -11 8 -5 -6z"/>
<path d="M7236 1287 c3 -10 9 -15 12 -12 3 3 0 11 -7 18 -10 9 -11 8 -5 -6z"/>
<path d="M7333 1285 c0 -8 4 -12 9 -9 5 3 6 10 3 15 -9 13 -12 11 -12 -6z"/>
<path d="M7413 1286 c0 -15 22 -15 34 0 4 5 4 6 -1 2 -5 -4 -14 -3 -21 2 -8 7
-12 5 -12 -4z"/>
<path d="M7576 1287 c3 -10 9 -15 12 -12 3 3 0 11 -7 18 -10 9 -11 8 -5 -6z"/>
<path d="M7653 1287 c0 -8 6 -14 14 -14 9 0 10 4 2 14 -6 7 -12 13 -14 13 -1
0 -2 -6 -2 -13z"/>
<path d="M7914 1289 c-3 -6 -2 -15 3 -20 5 -5 9 -1 9 11 0 23 -2 24 -12 9z"/>
<path d="M8155 1290 c-4 -6 -11 -7 -17 -4 -7 4 -8 2 -4 -5 6 -9 11 -9 22 0 14
11 18 19 10 19 -3 0 -8 -5 -11 -10z"/>
<path d="M2426 1282 c-3 -5 1 -9 9 -9 8 0 12 4 9 9 -3 4 -7 8 -9 8 -2 0 -6 -4
-9 -8z"/>
<path d="M2486 1282 c-2 -4 4 -8 14 -8 10 0 16 4 14 8 -3 4 -9 8 -14 8 -5 0
-11 -4 -14 -8z"/>
<path d="M2610 1279 c0 -5 5 -7 10 -4 6 3 10 8 10 11 0 2 -4 4 -10 4 -5 0 -10
-5 -10 -11z"/>
<path d="M3140 1286 c0 -2 8 -10 18 -17 15 -13 16 -12 3 4 -13 16 -21 21 -21
13z"/>
<path d="M3276 1278 c3 -5 10 -6 15 -3 13 9 11 12 -6 12 -8 0 -12 -4 -9 -9z"/>
<path d="M3835 1280 c3 -5 8 -10 11 -10 2 0 4 5 4 10 0 6 -5 10 -11 10 -5 0
-7 -4 -4 -10z"/>
<path d="M3956 1273 c-6 -14 -5 -15 5 -6 7 7 10 15 7 18 -3 3 -9 -2 -12 -12z"/>
<path d="M4320 1280 c-9 -6 -10 -10 -3 -10 6 0 15 5 18 10 8 12 4 12 -15 0z"/>
<path d="M4875 1280 c-3 -5 -1 -10 4 -10 6 0 11 5 11 10 0 6 -2 10 -4 10 -3 0
-8 -4 -11 -10z"/>
<path d="M4999 1273 c-12 -16 -12 -17 2 -6 9 7 19 10 22 6 4 -3 7 -1 7 5 0 17
-16 15 -31 -5z"/>
<path d="M5274 1275 c3 -23 12 -26 13 -5 1 11 -2 20 -7 20 -4 0 -7 -7 -6 -15z"/>
<path d="M5401 1276 c-9 -11 -9 -16 1 -22 7 -4 10 -4 6 1 -4 4 -3 14 3 22 6 7
9 13 6 13 -2 0 -10 -6 -16 -14z"/>
<path d="M5433 1272 c2 -12 9 -28 17 -35 10 -10 11 -9 4 3 -5 8 -9 21 -10 28
-2 8 -5 17 -8 20 -4 3 -5 -4 -3 -16z"/>
<path d="M5514 1276 c1 -8 5 -18 8 -22 4 -3 5 1 4 10 -1 8 -5 18 -8 22 -4 3
-5 -1 -4 -10z"/>
<path d="M5634 1275 c3 -23 12 -26 13 -5 1 11 -2 20 -7 20 -4 0 -7 -7 -6 -15z"/>
<path d="M6193 1271 c0 -11 5 -18 9 -15 4 3 5 11 1 19 -7 21 -12 19 -10 -4z"/>
<path d="M6319 1288 c-5 -18 -6 -38 -1 -34 7 8 12 36 6 36 -2 0 -4 -1 -5 -2z"/>
<path d="M6394 1276 c1 -8 5 -18 8 -22 4 -3 5 1 4 10 -1 8 -5 18 -8 22 -4 3
-5 -1 -4 -10z"/>
<path d="M6546 1278 c3 -5 10 -6 15 -3 13 9 11 12 -6 12 -8 0 -12 -4 -9 -9z"/>
<path d="M6910 1286 c0 -2 7 -7 16 -10 8 -3 12 -2 9 4 -6 10 -25 14 -25 6z"/>
<path d="M7270 1279 c0 -5 5 -7 10 -4 6 3 10 8 10 11 0 2 -4 4 -10 4 -5 0 -10
-5 -10 -11z"/>
<path d="M7710 1278 c0 -4 4 -8 9 -8 6 0 12 4 15 8 3 5 -1 9 -9 9 -8 0 -15 -4
-15 -9z"/>
<path d="M7750 1280 c0 -4 7 -7 15 -6 23 3 26 12 5 13 -11 1 -20 -2 -20 -7z"/>
<path d="M7796 1273 c-6 -14 -5 -15 5 -6 7 7 10 15 7 18 -3 3 -9 -2 -12 -12z"/>
<path d="M7873 1273 c0 -9 4 -10 14 -2 7 6 13 12 13 14 0 1 -6 2 -13 2 -8 0
-14 -6 -14 -14z"/>
<path d="M8066 1278 c3 -4 9 -8 15 -8 5 0 9 4 9 8 0 5 -7 9 -15 9 -8 0 -12 -4
-9 -9z"/>
<path d="M8100 1286 c0 -2 8 -10 18 -17 15 -13 16 -12 3 4 -13 16 -21 21 -21
13z"/>
<path d="M8306 1282 c-3 -5 1 -9 9 -9 8 0 12 4 9 9 -3 4 -7 8 -9 8 -2 0 -6 -4
-9 -8z"/>
<path d="M5313 1265 c0 -8 4 -12 9 -9 5 3 6 10 3 15 -9 13 -12 11 -12 -6z"/>
<path d="M6275 1271 c-3 -5 -2 -12 3 -15 5 -3 9 1 9 9 0 17 -3 19 -12 6z"/>
<path d="M6433 1265 c0 -8 4 -12 9 -9 5 3 6 10 3 15 -9 13 -12 11 -12 -6z"/>
<path d="M2155 1260 c-3 -5 -1 -10 4 -10 6 0 11 5 11 10 0 6 -2 10 -4 10 -3 0
-8 -4 -11 -10z"/>
<path d="M2275 1259 c-3 -4 2 -6 10 -5 21 3 28 13 10 13 -9 0 -18 -4 -20 -8z"/>
<path d="M2335 1260 c3 -5 8 -10 11 -10 2 0 4 5 4 10 0 6 -5 10 -11 10 -5 0
-7 -4 -4 -10z"/>
<path d="M5145 1260 c-3 -6 1 -7 9 -4 18 7 21 14 7 14 -6 0 -13 -4 -16 -10z"/>
<path d="M8210 1260 c0 -5 5 -10 11 -10 5 0 7 5 4 10 -3 6 -8 10 -11 10 -2 0
-4 -4 -4 -10z"/>
<path d="M8455 1261 c-3 -5 -2 -12 3 -15 5 -3 9 1 9 9 0 17 -3 19 -12 6z"/>
<path d="M7233 1245 c0 -8 4 -12 9 -9 5 3 6 10 3 15 -9 13 -12 11 -12 -6z"/>
<path d="M1875 1240 c3 -5 8 -10 11 -10 2 0 4 5 4 10 0 6 -5 10 -11 10 -5 0
-7 -4 -4 -10z"/>
<path d="M2476 1242 c-3 -5 1 -9 9 -9 8 0 12 4 9 9 -3 4 -7 8 -9 8 -2 0 -6 -4
-9 -8z"/>
<path d="M2935 1240 c-3 -5 -1 -10 4 -10 6 0 11 5 11 10 0 6 -2 10 -4 10 -3 0
-8 -4 -11 -10z"/>
<path d="M3759 1233 c-13 -16 -12 -17 4 -4 16 13 21 21 13 21 -2 0 -10 -8 -17
-17z"/>
<path d="M5190 1240 c0 -5 5 -10 10 -10 6 0 10 5 10 10 0 6 -4 10 -10 10 -5 0
-10 -4 -10 -10z"/>
<path d="M6870 1236 c7 -7 13 -7 20 0 6 6 3 10 -10 10 -13 0 -16 -4 -10 -10z"/>
<path d="M3075 1229 c-4 -6 -5 -12 -2 -15 2 -3 7 2 10 11 7 17 1 20 -8 4z"/>
<path d="M3653 1225 c0 -8 4 -12 9 -9 5 3 6 10 3 15 -9 13 -12 11 -12 -6z"/>
<path d="M5813 1225 c0 -8 4 -12 9 -9 5 3 6 10 3 15 -9 13 -12 11 -12 -6z"/>
<path d="M6053 1225 c0 -8 4 -12 9 -9 5 3 6 10 3 15 -9 13 -12 11 -12 -6z"/>
<path d="M6773 1225 c0 -8 4 -12 9 -9 5 3 6 10 3 15 -9 13 -12 11 -12 -6z"/>
<path d="M3245 1220 c-3 -6 1 -7 9 -4 18 7 21 14 7 14 -6 0 -13 -4 -16 -10z"/>
<path d="M3335 1221 c-3 -5 -2 -12 3 -15 5 -3 9 1 9 9 0 17 -3 19 -12 6z"/>
<path d="M3455 1221 c-3 -5 -2 -12 3 -15 5 -3 9 1 9 9 0 17 -3 19 -12 6z"/>
<path d="M3535 1220 c3 -5 8 -10 11 -10 2 0 4 5 4 10 0 6 -5 10 -11 10 -5 0
-7 -4 -4 -10z"/>
<path d="M3690 1220 c0 -5 5 -10 11 -10 5 0 7 5 4 10 -3 6 -8 10 -11 10 -2 0
-4 -4 -4 -10z"/>
<path d="M3930 1219 c0 -5 5 -7 10 -4 6 3 10 8 10 11 0 2 -4 4 -10 4 -5 0 -10
-5 -10 -11z"/>
<path d="M4086 1222 c-3 -5 1 -9 9 -9 8 0 12 4 9 9 -3 4 -7 8 -9 8 -2 0 -6 -4
-9 -8z"/>
<path d="M4216 1218 c3 -4 11 -5 19 -1 21 7 19 12 -4 10 -11 0 -18 -5 -15 -9z"/>
<path d="M4410 1219 c0 -5 5 -7 10 -4 6 3 10 8 10 11 0 2 -4 4 -10 4 -5 0 -10
-5 -10 -11z"/>
<path d="M4536 1222 c-3 -5 1 -9 9 -9 8 0 12 4 9 9 -3 4 -7 8 -9 8 -2 0 -6 -4
-9 -8z"/>
<path d="M4695 1220 c3 -5 8 -10 11 -10 2 0 4 5 4 10 0 6 -5 10 -11 10 -5 0
-7 -4 -4 -10z"/>
<path d="M4805 1220 c-3 -6 1 -7 9 -4 18 7 21 14 7 14 -6 0 -13 -4 -16 -10z"/>
<path d="M4965 1220 c-3 -6 1 -7 9 -4 18 7 21 14 7 14 -6 0 -13 -4 -16 -10z"/>
<path d="M5255 1221 c-3 -5 -2 -12 3 -15 5 -3 9 1 9 9 0 17 -3 19 -12 6z"/>
<path d="M5695 1220 c3 -5 8 -10 11 -10 2 0 4 5 4 10 0 6 -5 10 -11 10 -5 0
-7 -4 -4 -10z"/>
<path d="M5855 1220 c-3 -5 -1 -10 4 -10 6 0 11 5 11 10 0 6 -2 10 -4 10 -3 0
-8 -4 -11 -10z"/>
<path d="M5935 1220 c3 -5 8 -10 11 -10 2 0 4 5 4 10 0 6 -5 10 -11 10 -5 0
-7 -4 -4 -10z"/>
<path d="M6095 1220 c-3 -5 -1 -10 4 -10 6 0 11 5 11 10 0 6 -2 10 -4 10 -3 0
-8 -4 -11 -10z"/>
<path d="M7655 1220 c-3 -5 -1 -10 4 -10 6 0 11 5 11 10 0 6 -2 10 -4 10 -3 0
-8 -4 -11 -10z"/>
<path d="M1953 1205 c0 -8 4 -12 9 -9 5 3 6 10 3 15 -9 13 -12 11 -12 -6z"/>
<path d="M5433 1205 c0 -8 4 -12 9 -9 5 3 6 10 3 15 -9 13 -12 11 -12 -6z"/>
<path d="M3506 1202 c-3 -5 1 -9 9 -9 8 0 12 4 9 9 -3 4 -7 8 -9 8 -2 0 -6 -4
-9 -8z"/>
<path d="M4586 1198 c3 -5 10 -6 15 -3 13 9 11 12 -6 12 -8 0 -12 -4 -9 -9z"/>
<path d="M5550 1199 c0 -5 5 -7 10 -4 6 3 10 8 10 11 0 2 -4 4 -10 4 -5 0 -10
-5 -10 -11z"/>
<path d="M6235 1200 c-3 -5 -1 -10 4 -10 6 0 11 5 11 10 0 6 -2 10 -4 10 -3 0
-8 -4 -11 -10z"/>
<path d="M7230 1206 c0 -2 7 -7 16 -10 8 -3 12 -2 9 4 -6 10 -25 14 -25 6z"/>
<path d="M4915 1161 c-3 -5 -2 -12 3 -15 5 -3 9 1 9 9 0 17 -3 19 -12 6z"/>
<path d="M7475 1160 c-3 -5 -1 -10 4 -10 6 0 11 5 11 10 0 6 -2 10 -4 10 -3 0
-8 -4 -11 -10z"/>
<path d="M8030 1161 c0 -6 4 -13 10 -16 6 -3 7 1 4 9 -7 18 -14 21 -14 7z"/>
<path d="M8235 1129 c-4 -6 -5 -12 -2 -15 2 -3 7 2 10 11 7 17 1 20 -8 4z"/>
<path d="M6780 1126 c0 -2 8 -10 18 -17 15 -13 16 -12 3 4 -13 16 -21 21 -21
13z"/>
<path d="M7775 1120 c-3 -5 -1 -10 4 -10 6 0 11 5 11 10 0 6 -2 10 -4 10 -3 0
-8 -4 -11 -10z"/>
<path d="M2707 1099 c7 -7 15 -10 18 -7 3 3 -2 9 -12 12 -14 6 -15 5 -6 -5z"/>
<path d="M9440 80 l0 -80 400 0 400 0 0 80 0 80 -400 0 -400 0 0 -80z"/>
</g>
</svg>
